<svg width="109" height="33" viewBox="0 0 109 33" fill="none" xmlns="http://www.w3.org/2000/svg">
<path d="M0.845 0.499998H8.18C10.73 0.499998 12.59 1.1 13.76 2.3C14.93 3.47 15.515 5.285 15.515 7.745V9.68C15.515 12.95 14.435 15.02 12.275 15.89V15.98C13.475 16.34 14.315 17.075 14.795 18.185C15.305 19.295 15.56 20.78 15.56 22.64V28.175C15.56 29.075 15.59 29.81 15.65 30.38C15.71 30.92 15.86 31.46 16.1 32H11.06C10.88 31.49 10.76 31.01 10.7 30.56C10.64 30.11 10.61 29.3 10.61 28.13V22.37C10.61 20.93 10.37 19.925 9.89 19.355C9.44 18.785 8.645 18.5 7.505 18.5H5.795V32H0.845V0.499998ZM7.595 14C8.585 14 9.32 13.745 9.8 13.235C10.31 12.725 10.565 11.87 10.565 10.67V8.24C10.565 7.1 10.355 6.275 9.935 5.765C9.545 5.255 8.915 5 8.045 5H5.795V14H7.595ZM26.1944 32.45C23.7944 32.45 21.9644 31.775 20.7044 30.425C19.4444 29.045 18.8144 27.08 18.8144 24.53V0.499998H23.7644V24.89C23.7644 25.97 23.9744 26.75 24.3944 27.23C24.8444 27.71 25.4744 27.95 26.2844 27.95C27.0944 27.95 27.7094 27.71 28.1294 27.23C28.5794 26.75 28.8044 25.97 28.8044 24.89V0.499998H33.5744V24.53C33.5744 27.08 32.9444 29.045 31.6844 30.425C30.4244 31.775 28.5944 32.45 26.1944 32.45ZM37.0999 0.499998H44.1649L47.3149 23.045H47.4049L50.5549 0.499998H57.6199V32H52.9399V8.15H52.8499L49.2499 32H45.1099L41.5099 8.15H41.4199V32H37.0999V0.499998ZM61.3138 0.499998H68.7838C71.3338 0.499998 73.1938 1.1 74.3638 2.3C75.5338 3.47 76.1188 5.285 76.1188 7.745V9.005C76.1188 10.625 75.8488 11.945 75.3088 12.965C74.7988 13.985 74.0038 14.72 72.9238 15.17V15.26C75.3838 16.1 76.6138 18.29 76.6138 21.83V24.53C76.6138 26.96 75.9688 28.82 74.6788 30.11C73.4188 31.37 71.5588 32 69.0988 32H61.3138V0.499998ZM68.1988 13.325C69.1888 13.325 69.9238 13.07 70.4038 12.56C70.9138 12.05 71.1688 11.195 71.1688 9.995V8.24C71.1688 7.1 70.9588 6.275 70.5388 5.765C70.1488 5.255 69.5188 5 68.6488 5H66.2638V13.325H68.1988ZM69.0988 27.5C69.9688 27.5 70.6138 27.275 71.0337 26.825C71.4538 26.345 71.6638 25.535 71.6638 24.395V21.65C71.6638 20.21 71.4088 19.22 70.8988 18.68C70.4188 18.11 69.6088 17.825 68.4688 17.825H66.2638V27.5H69.0988ZM79.5071 0.499998H84.4571V27.5H92.6021V32H79.5071V0.499998ZM94.9759 0.499998H108.476V5H99.9259V13.325H106.721V17.825H99.9259V27.5H108.476V32H94.9759V0.499998Z" fill="#FF6161"/>
</svg>
