<svg width="97" height="29" viewBox="0 0 97 29" fill="none" xmlns="http://www.w3.org/2000/svg">
<path d="M0.64 -1.90735e-06H7.16C9.42667 -1.90735e-06 11.08 0.533332 12.12 1.6C13.16 2.64 13.68 4.25333 13.68 6.44V8.16C13.68 11.0667 12.72 12.9067 10.8 13.68V13.76C11.8667 14.08 12.6133 14.7333 13.04 15.72C13.4933 16.7067 13.72 18.0267 13.72 19.68V24.6C13.72 25.4 13.7467 26.0533 13.8 26.56C13.8533 27.04 13.9867 27.52 14.2 28H9.72C9.56 27.5467 9.45333 27.12 9.4 26.72C9.34667 26.32 9.32 25.6 9.32 24.56V19.44C9.32 18.16 9.10667 17.2667 8.68 16.76C8.28 16.2533 7.57333 16 6.56 16H5.04V28H0.64V-1.90735e-06ZM6.64 12C7.52 12 8.17333 11.7733 8.6 11.32C9.05333 10.8667 9.28 10.1067 9.28 9.04V6.88C9.28 5.86667 9.09333 5.13333 8.72 4.68C8.37333 4.22667 7.81333 4 7.04 4H5.04V12H6.64ZM23.1728 28.4C21.0395 28.4 19.4128 27.8 18.2928 26.6C17.1728 25.3733 16.6128 23.6267 16.6128 21.36V-1.90735e-06H21.0128V21.68C21.0128 22.64 21.1995 23.3333 21.5728 23.76C21.9728 24.1867 22.5328 24.4 23.2528 24.4C23.9728 24.4 24.5195 24.1867 24.8928 23.76C25.2928 23.3333 25.4928 22.64 25.4928 21.68V-1.90735e-06H29.7328V21.36C29.7328 23.6267 29.1728 25.3733 28.0528 26.6C26.9328 27.8 25.3061 28.4 23.1728 28.4ZM32.8666 -1.90735e-06H39.1466L41.9466 20.04H42.0266L44.8266 -1.90735e-06H51.1066V28H46.9466V6.8H46.8666L43.6666 28H39.9866L36.7866 6.8H36.7066V28H32.8666V-1.90735e-06ZM54.39 -1.90735e-06H61.03C63.2967 -1.90735e-06 64.95 0.533332 65.99 1.6C67.03 2.64 67.55 4.25333 67.55 6.44V7.56C67.55 9 67.31 10.1733 66.83 11.08C66.3767 11.9867 65.67 12.64 64.71 13.04V13.12C66.8967 13.8667 67.99 15.8133 67.99 18.96V21.36C67.99 23.52 67.4167 25.1733 66.27 26.32C65.15 27.44 63.4967 28 61.31 28H54.39V-1.90735e-06ZM60.51 11.4C61.39 11.4 62.0433 11.1733 62.47 10.72C62.9233 10.2667 63.15 9.50667 63.15 8.44V6.88C63.15 5.86667 62.9633 5.13333 62.59 4.68C62.2433 4.22667 61.6833 4 60.91 4H58.79V11.4H60.51ZM61.31 24C62.0833 24 62.6567 23.8 63.03 23.4C63.4033 22.9733 63.59 22.2533 63.59 21.24V18.8C63.59 17.52 63.3633 16.64 62.91 16.16C62.4833 15.6533 61.7633 15.4 60.75 15.4H58.79V24H61.31ZM70.5619 -1.90735e-06H74.9619V24H82.2019V28H70.5619V-1.90735e-06ZM84.3119 -1.90735e-06H96.3119V4H88.7119V11.4H94.7519V15.4H88.7119V24H96.3119V28H84.3119V-1.90735e-06Z" fill="white"/>
</svg>
